<svg width="30" height="30" viewBox="0 0 30 30" fill="none" xmlns="http://www.w3.org/2000/svg">
<path d="M27.1914 8.4375V21.5625C27.1914 22.0598 26.9939 22.5367 26.6422 22.8883C26.2906 23.24 25.8137 23.4375 25.3164 23.4375H4.69141C4.19413 23.4375 3.71721 23.24 3.36558 22.8883C3.01395 22.5367 2.81641 22.0598 2.81641 21.5625V8.4375M27.1914 8.4375C27.1914 7.94022 26.9939 7.46331 26.6422 7.11167C26.2906 6.76004 25.8137 6.5625 25.3164 6.5625H4.69141C4.19413 6.5625 3.71721 6.76004 3.36558 7.11167C3.01395 7.46331 2.81641 7.94022 2.81641 8.4375M27.1914 8.4375L16.0708 16.1362C15.7573 16.3532 15.3851 16.4694 15.0039 16.4694C14.6227 16.4694 14.2505 16.3532 13.937 16.1362L2.81641 8.4375" stroke="#ffffff" stroke-width="2" stroke-linecap="round" stroke-linejoin="round"/>
</svg>
