<?xml version="1.0" encoding="iso-8859-1"?>
<!-- Uploaded to: SVG Repo, www.svgrepo.com, Generator: SVG Repo Mixer Tools -->
<!DOCTYPE svg PUBLIC "-//W3C//DTD SVG 1.1//EN" "http://www.w3.org/Graphics/SVG/1.1/DTD/svg11.dtd">
<svg fill="#000000" height="800px" width="800px" version="1.1" id="Capa_1" xmlns="http://www.w3.org/2000/svg" xmlns:xlink="http://www.w3.org/1999/xlink" 
	 viewBox="0 0 381.42 381.42" xml:space="preserve">
<path d="M117.546,295.42c0-4.971,4.029-9,9-9h10.962c4.971,0,9,4.029,9,9s-4.029,9-9,9h-10.962
	C121.575,304.42,117.546,300.391,117.546,295.42z M186.456,258.038c-12.318-31.606-43.074-54.063-78.986-54.063
	c-35.957,0-66.763,22.51-79.049,54.18c-11.728,2.479-19.21,9.436-19.21,18.055v21.87c0,9.059,8.269,16.28,21.043,18.398
	c2.609,0.431,5.518-0.304,7.535-2.015c2.017-1.71,3.422-4.22,3.422-6.864v-18.883c0-36.801,29.704-66.741,66.505-66.741
	c2.273,0,4.401,0.114,6.616,0.337c-9.273,14.997-23.125,25.85-38.716,30.211c-4.787,1.339-7.611,6.305-6.273,11.091
	c1.339,4.787,6.291,7.587,11.077,6.243c21.664-6.06,40.472-21.68,51.986-43.057c24.494,9.894,41.819,33.92,41.819,61.916
	c0,28.749-18.19,53.864-44.909,63.058c-3.002-2.685-6.966-4.354-11.301-4.354H96.947c-9.357,0-16.97,7.644-16.97,17
	s7.613,17,16.97,17h21.069c7.743,0,14.292-5.209,16.32-12.311c25.533-8.483,45.03-28.384,53.397-53.133
	c11.323-2.605,18.477-9.452,18.477-17.897v-21.87C206.21,267.451,198.514,260.409,186.456,258.038z M24.21,209.014
	c4.971,0,9-4.029,9-9V99.42h81.76l-0.93,0.738c-3.558,3.472-3.628,9.086-0.157,12.644s9.169,3.585,12.727,0.115l16.636-16.252
	c0.094-0.089-0.009-0.19,0.083-0.284c0.966-0.99,1.881-2.151,1.881-3.378c0-0.001,0-0.004,0-0.004c0-0.006,0.2-0.013,0.202-0.019
	c0.267-0.786,0.59-1.623,0.628-2.491c0.006-0.132,0.17-0.265,0.17-0.398c0-0.002,0-0.005,0-0.007s0-0.005,0-0.007
	c0-0.133,0-0.266,0-0.398c0-0.004,0-0.008,0-0.012s0-0.009,0-0.013c0-0.86-0.27-1.688-0.535-2.468
	c-0.001-0.002-0.036-0.005-0.037-0.007c-0.001-0.003-0.02-0.008-0.021-0.011c-0.418-1.227-1.118-2.382-2.084-3.371
	c-0.09-0.093-0.187-0.183-0.28-0.271l-16.641-16.234c-3.558-3.47-9.256-3.4-12.728,0.157c-3.471,3.558-3.401,9.424,0.156,12.896
	l0.929,1.074H24.215c-0.063,0-0.034-0.17-0.098-0.17c-4.971,0-8.907,3.861-8.907,8.832v109.932
	C15.21,204.985,19.24,209.014,24.21,209.014z M97.945,295.42c0-4.971-4.029-9-9-9H77.98c-4.971,0-9,4.029-9,9s4.029,9,9,9h10.965
	C93.915,304.42,97.945,300.391,97.945,295.42z M266.228,186.815c-38.337,0-70.31-27.77-76.859-64.251
	c-0.315,0.061-0.637,0.105-0.964,0.133c-4.948,0.417-9.306-3.263-9.722-8.216l-1.17-13.92c-0.416-4.953,3.259-9.306,8.213-9.722
	c1.516-0.129,2.977,0.131,4.287,0.691c1.424-6.372,3.637-12.519,6.623-18.335c-0.344-0.283-0.69-0.593-0.991-0.929
	c-0.33-0.367-0.669-0.757-0.932-1.167c-0.853-1.33-1.502-2.899-1.502-4.585c0-0.001,0-0.002,0-0.004c0-0.004,0-0.009,0-0.014
	c0-0.089,0.083-0.156,0.083-0.245c0.001-0.369,0.11-0.712,0.154-1.068C197.49,27.988,228.751,0,266.228,0
	c34.778,0,64.203,24.42,71.493,57.42h24.148c4.971,0,9,4.029,9,9s-4.029,9-9,9h-25.055c2.48,5,4.361,10.568,5.619,16.198
	c1.312-0.562,2.773-0.905,4.295-0.779c4.952,0.417,8.63,4.771,8.214,9.724l-1.171,13.919c-0.417,4.954-4.785,8.625-9.723,8.215
	c-0.326-0.028-0.646-0.072-0.961-0.133C336.539,159.045,304.565,186.815,266.228,186.815z M213.319,57.42h105.822
	c-6.838-23-28.063-39.334-52.913-39.334C241.38,18.086,220.156,34.42,213.319,57.42z M266.228,168.9
	c33.133,0,60.088-26.955,60.088-60.087c0-12.091-3.507-23.393-10.182-33.393h-99.811c-6.675,10-10.182,21.301-10.182,33.393
	C206.142,141.945,233.096,168.9,266.228,168.9z M283.619,115.42h10c4.971,0,9-4.029,9-9s-4.029-9-9-9h-10c-4.971,0-9,4.029-9,9
	S278.649,115.42,283.619,115.42z M277.73,142.42c0-4.971-4.029-9-9-9h-5c-4.971,0-9,4.029-9,9s4.029,9,9,9h5
	C273.7,151.42,277.73,147.391,277.73,142.42z M363.21,166.134c-4.971,0-9,4.029-9,9V276.42h-81.475l0.93-1.084
	c3.558-3.472,3.628-9.259,0.157-12.816c-3.473-3.558-9.169-3.672-12.728-0.202l-16.636,16.209c-0.095,0.089-0.188,0.169-0.279,0.262
	c-0.944,0.968-1.626,2.089-2.048,3.285c-0.316,0.897-0.701,1.858-0.715,2.86l-0.207-0.002c0,0.044,0,0.088,0,0.132
	c0,1.052,0.387,2.063,0.719,3.001c0.001,0.002,0.105,0.005,0.105,0.008c0.002,0.003,0.054,0.007,0.055,0.01
	c0.422,1.188,1.127,2.306,2.065,3.268c0.091,0.093,0.195,0.183,0.289,0.271l16.645,16.232c1.751,1.707,4.022,2.558,6.287,2.558
	c2.341,0,4.681-0.907,6.445-2.715c3.471-3.559,3.401-9.078-0.156-12.55l-0.928-0.728h90.754c5.083,0,8.72-4.319,8.72-9.354v-0.002
	V175.134C372.21,170.164,368.181,166.134,363.21,166.134z M258.323,106.42c0-4.971-4.029-9-9-9h-10.002c-4.971,0-9,4.029-9,9
	s4.029,9,9,9h10.002C254.293,115.42,258.323,111.391,258.323,106.42z"/>
</svg>