<svg width="30" height="30" viewBox="0 0 30 30" fill="none" xmlns="http://www.w3.org/2000/svg">
<path d="M14.2634 27.1555C14.4541 27.3663 14.7255 27.4859 15.0098 27.4846C15.294 27.4832 15.5643 27.361 15.753 27.1484L16.6544 26.1327L16.6544 26.1327L16.6597 26.1266C17.693 24.9432 18.6259 23.8165 19.4586 22.7411L19.4586 22.7412L19.4648 22.733L20.1405 21.8415L20.1406 21.8416L20.1466 21.8334C22.9795 18.0166 24.5765 14.7696 24.5765 12.1889C24.5765 6.8818 20.2968 2.57031 15.005 2.57031C9.71326 2.57031 5.43359 6.8818 5.43359 12.1889C5.43359 14.7696 7.03058 18.0166 9.86345 21.8334L9.86341 21.8335L9.86953 21.8415L10.5452 22.733L10.5452 22.733L10.5538 22.7441C11.7367 24.2598 12.9741 25.7302 14.2634 27.1555Z" stroke="#ffffff" stroke-width="2" stroke-linecap="round" stroke-linejoin="round"/>
<path d="M15.005 16.7132C17.5298 16.7132 19.5765 14.6665 19.5765 12.1417C19.5765 9.61701 17.5298 7.57031 15.005 7.57031C12.4803 7.57031 10.4336 9.61701 10.4336 12.1417C10.4336 14.6665 12.4803 16.7132 15.005 16.7132Z" stroke="#ffffff" stroke-width="2" stroke-linecap="round" stroke-linejoin="round"/>
</svg>
